<?xml version="1.0" encoding="UTF-8"?>
<svg version="1.1" xmlns="http://www.w3.org/2000/svg" width="32" height="32">
<path d="M0 0 C0.7734375 -0.01417969 1.546875 -0.02835937 2.34375 -0.04296875 C4.5 0.1875 4.5 0.1875 7.5 2.1875 C7.5 2.8475 7.5 3.5075 7.5 4.1875 C8.49 4.5175 9.48 4.8475 10.5 5.1875 C11.625 12.8125 11.625 12.8125 10.5 16.1875 C12.15 16.8475 13.8 17.5075 15.5 18.1875 C15.5 20.1875 15.5 22.1875 15.5 24.1875 C4.94 24.1875 -5.62 24.1875 -16.5 24.1875 C-16.5 22.2075 -16.5 20.2275 -16.5 18.1875 C-14.85 17.5275 -13.2 16.8675 -11.5 16.1875 C-11.83 15.8575 -12.16 15.5275 -12.5 15.1875 C-12.9781408 10.48578209 -13.22931068 7.51344144 -10.1875 3.75 C-6.80149334 0.52148202 -4.51249842 0.03760415 0 0 Z M0.5 3.1875 C0.1626154 6.31248166 0.1626154 6.31248166 2.5 8.375 C3.16 8.973125 3.82 9.57125 4.5 10.1875 C5.49 9.8575 6.48 9.5275 7.5 9.1875 C7.22382467 7.24675139 7.22382467 7.24675139 6.5 5.1875 C3.68490007 2.9101499 3.68490007 2.9101499 0.5 3.1875 Z " fill="#E5CDAB" transform="translate(16.5,3.8125)"/>
<path d="M0 0 C1.32 0 2.64 0 4 0 C4 0.99 4 1.98 4 3 C4.66 3.33 5.32 3.66 6 4 C5.67 4.66 5.34 5.32 5 6 C4.34 6 3.68 6 3 6 C2.87625 6.70125 2.7525 7.4025 2.625 8.125 C1.96161655 11.17656387 1.02788045 14.05340938 0 17 C3.3 17 6.6 17 10 17 C10 17.99 10 18.98 10 20 C10.66 20 11.32 20 12 20 C11.67 18.68 11.34 17.36 11 16 C12.32 16 13.64 16 15 16 C15.66 17.32 16.32 18.64 17 20 C13.70265354 21.09911549 11.27041255 21.1139456 7.80078125 21.09765625 C6.59228516 21.09443359 5.38378906 21.09121094 4.13867188 21.08789062 C2.2447168 21.07532227 2.2447168 21.07532227 0.3125 21.0625 C-1.59885742 21.05573242 -1.59885742 21.05573242 -3.54882812 21.04882812 C-6.69926564 21.03702873 -9.84960949 21.02056597 -13 21 C-13 19.02 -13 17.04 -13 15 C-11.35 14.34 -9.7 13.68 -8 13 C-8 10.36 -8 7.72 -8 5 C-7.34 5 -6.68 5 -6 5 C-6 5.66 -6 6.32 -6 7 C-5.34 7 -4.68 7 -4 7 C-4 6.34 -4 5.68 -4 5 C-2.68 4.34 -1.36 3.68 0 3 C0 2.01 0 1.02 0 0 Z " fill="#CD6529" transform="translate(13,7)"/>
<path d="M0 0 C0.7734375 -0.01417969 1.546875 -0.02835937 2.34375 -0.04296875 C4.5 0.1875 4.5 0.1875 7.5 2.1875 C7.5 2.8475 7.5 3.5075 7.5 4.1875 C8.49 4.5175 9.48 4.8475 10.5 5.1875 C11.5 12.9375 11.5 12.9375 11.5 15.1875 C9.85 15.5175 8.2 15.8475 6.5 16.1875 C6.17 14.5375 5.84 12.8875 5.5 11.1875 C6.49 11.1875 7.48 11.1875 8.5 11.1875 C8.03146378 8.19344421 8.03146378 8.19344421 6.5 5.1875 C3.07610835 3.62560193 3.07610835 3.62560193 -0.5 3.1875 C-3.01083114 4.44291557 -3.37125446 5.68813488 -4.5 8.1875 C-5.49 8.1875 -6.48 8.1875 -7.5 8.1875 C-7.5 8.8475 -7.5 9.5075 -7.5 10.1875 C-8.16 10.1875 -8.82 10.1875 -9.5 10.1875 C-9.5 9.5275 -9.5 8.8675 -9.5 8.1875 C-10.16 8.1875 -10.82 8.1875 -11.5 8.1875 C-11.29375 8.97125 -11.0875 9.755 -10.875 10.5625 C-10.75125 11.42875 -10.6275 12.295 -10.5 13.1875 C-11.16 13.8475 -11.82 14.5075 -12.5 15.1875 C-13.16964286 7.41964286 -13.16964286 7.41964286 -10.1875 3.75 C-6.80149334 0.52148202 -4.51249842 0.03760415 0 0 Z " fill="#E1BAA0" transform="translate(16.5,3.8125)"/>
<path d="M0 0 C1.32 0 2.64 0 4 0 C4 0.99 4 1.98 4 3 C4.66 3.33 5.32 3.66 6 4 C5.67 4.66 5.34 5.32 5 6 C4.34 6 3.68 6 3 6 C2.67 7.32 2.34 8.64 2 10 C-0.31 9.67 -2.62 9.34 -5 9 C-4.45276317 12.37462715 -3.9451 14.08235 -2 17 C-2.99 17 -3.98 17 -5 17 C-5.33 18.32 -5.66 19.64 -6 21 C-8.31 21 -10.62 21 -13 21 C-13 19.02 -13 17.04 -13 15 C-11.35 14.34 -9.7 13.68 -8 13 C-8 10.36 -8 7.72 -8 5 C-7.34 5 -6.68 5 -6 5 C-6 5.66 -6 6.32 -6 7 C-5.34 7 -4.68 7 -4 7 C-4 6.34 -4 5.68 -4 5 C-2.68 4.34 -1.36 3.68 0 3 C0 2.01 0 1.02 0 0 Z " fill="#CBA26E" transform="translate(13,7)"/>
<path d="M0 0 C1.125 1.75 1.125 1.75 2 4 C1.125 6.25 1.125 6.25 0 8 C-0.99 8 -1.98 8 -3 8 C-3 8.66 -3 9.32 -3 10 C-3.66 10 -4.32 10 -5 10 C-5 9.34 -5 8.68 -5 8 C-5.66 8 -6.32 8 -7 8 C-6.79375 8.78375 -6.5875 9.5675 -6.375 10.375 C-6.25125 11.24125 -6.1275 12.1075 -6 13 C-6.66 13.66 -7.32 14.32 -8 15 C-8.66964286 7.23214286 -8.66964286 7.23214286 -5.6875 3.5625 C-3 1 -3 1 0 0 Z " fill="#E3C38F" transform="translate(12,4)"/>
<path d="M0 0 C2.69082872 0.17635452 5.32851446 0.61835921 8 1 C8 3 8 5 8 7 C6.35 7 4.7 7 3 7 C3.66 6.34 4.32 5.68 5 5 C4.67 4.01 4.34 3.02 4 2 C3.01 2.33 2.02 2.66 1 3 C1 3.99 1 4.98 1 6 C0.34 6 -0.32 6 -1 6 C-1 5.01 -1 4.02 -1 3 C-4.3 3 -7.6 3 -11 3 C-10.67 2.34 -10.34 1.68 -10 1 C-9.36191406 1.01160156 -8.72382813 1.02320312 -8.06640625 1.03515625 C-7.24011719 1.04417969 -6.41382813 1.05320312 -5.5625 1.0625 C-4.32693359 1.07990234 -4.32693359 1.07990234 -3.06640625 1.09765625 C-1.00836062 1.23267348 -1.00836062 1.23267348 0 0 Z " fill="#D8946A" transform="translate(24,21)"/>
<path d="M0 0 C0.33 0.66 0.66 1.32 1 2 C3.01669827 3.13350534 3.01669827 3.13350534 5 4 C4.34 5.98 3.68 7.96 3 10 C-0.16115776 8.63016497 -0.9927092 8.0109362 -3 5 C-2.625 2.8125 -2.625 2.8125 -2 1 C-1.34 1.33 -0.68 1.66 0 2 C0 1.34 0 0.68 0 0 Z " fill="#A07315" transform="translate(10,14)"/>
<path d="M0 0 C2.64 0 5.28 0 8 0 C7.67 1.98 7.34 3.96 7 6 C4.69 6 2.38 6 0 6 C0 4.02 0 2.04 0 0 Z " fill="#D84E1A" transform="translate(0,22)"/>
<path d="M0 0 C0.66 0.33 1.32 0.66 2 1 C1.649375 1.515625 1.29875 2.03125 0.9375 2.5625 C-0.3615641 5.94006667 0.32782319 8.50468057 1 12 C-0.65 12 -2.3 12 -4 12 C-4.6875 10.375 -4.6875 10.375 -5 8 C-3.5625 4.75 -3.5625 4.75 -2 2 C-1.34 2 -0.68 2 0 2 C0 1.34 0 0.68 0 0 Z " fill="#F0ED9B" transform="translate(18,11)"/>
<path d="M0 0 C1.32 0 2.64 0 4 0 C4.66 1.32 5.32 2.64 6 4 C2.71480525 5.09506492 0.26336585 5.09960608 -3.1875 5.0625 C-4.81751953 5.04896484 -4.81751953 5.04896484 -6.48046875 5.03515625 C-7.31191406 5.02355469 -8.14335937 5.01195312 -9 5 C-8.67 4.01 -8.34 3.02 -8 2 C-8 2.66 -8 3.32 -8 4 C-6.02 4 -4.04 4 -2 4 C-1.67 3.01 -1.34 2.02 -1 1 C-1 1.99 -1 2.98 -1 4 C-0.34 4 0.32 4 1 4 C0.67 2.68 0.34 1.36 0 0 Z " fill="#C8401A" transform="translate(24,23)"/>
<path d="M0 0 C0.33 0 0.66 0 1 0 C1 1.98 1 3.96 1 6 C1.66 6 2.32 6 3 6 C3 6.99 3 7.98 3 9 C1.35 8.67 -0.3 8.34 -2 8 C-1.47731534 5.23723823 -0.89130413 2.6739124 0 0 Z " fill="#E5DE85" transform="translate(19,12)"/>
<path d="M0 0 C1.98 0 3.96 0 6 0 C6 1.32 6 2.64 6 4 C4.35 4.33 2.7 4.66 1 5 C0.67 3.35 0.34 1.7 0 0 Z " fill="#DFC29E" transform="translate(22,15)"/>
<path d="M0 0 C0.99 0.66 1.98 1.32 3 2 C2.34 3.98 1.68 5.96 1 8 C-2.875 6.25 -2.875 6.25 -4 4 C-2.68 4 -1.36 4 0 4 C0 2.68 0 1.36 0 0 Z " fill="#716045" transform="translate(12,16)"/>
<path d="M0 0 C0.99 0 1.98 0 3 0 C2.67 2.64 2.34 5.28 2 8 C1.01 8 0.02 8 -1 8 C-0.67 5.36 -0.34 2.72 0 0 Z " fill="#AE6D22" transform="translate(13,7)"/>
<path d="M0 0 C0.33 1.32 0.66 2.64 1 4 C0.01 4.66 -0.98 5.32 -2 6 C-2.99 5.01 -3.98 4.02 -5 3 C-3.35 2.01 -1.7 1.02 0 0 Z " fill="#E6C5A7" transform="translate(12,4)"/>
<path d="M0 0 C0.99 0.33 1.98 0.66 3 1 C3 1.99 3 2.98 3 4 C3.99 4 4.98 4 6 4 C5.67 4.66 5.34 5.32 5 6 C3.35 6 1.7 6 0 6 C0 4.02 0 2.04 0 0 Z " fill="#E0AB8F" transform="translate(0,22)"/>
<path d="M0 0 C2.475 0.495 2.475 0.495 5 1 C4.34 1.66 3.68 2.32 3 3 C2.3574765 5.06874034 2.3574765 5.06874034 2 7 C2 6.34 2 5.68 2 5 C1.34 5 0.68 5 0 5 C0 3.35 0 1.7 0 0 Z " fill="#EEE8AB" transform="translate(20,13)"/>
<path d="M0 0 C2.31 0 4.62 0 7 0 C7 0.66 7 1.32 7 2 C4.69 2.33 2.38 2.66 0 3 C0 2.01 0 1.02 0 0 Z " fill="#DBA78B" transform="translate(13,4)"/>
</svg>
